<?xml version="1.0" encoding="utf-8"?>
<!-- Generator: Adobe Illustrator 23.0.0, SVG Export Plug-In . SVG Version: 6.00 Build 0)  -->
<svg version="1.1" id="Capa_1" xmlns="http://www.w3.org/2000/svg" xmlns:xlink="http://www.w3.org/1999/xlink" x="0px" y="0px"
	 viewBox="0 0 477.9 477.9" style="enable-background:new 0 0 477.9 477.9;" xml:space="preserve">
<style type="text/css">
	.st0{fill:#6BB84F;}
</style>
<g>
	<g>
		<path class="st0" d="M409.6,170.7h-17.1v-17.1C392.5,68.8,323.8,0,238.9,0S85.3,68.8,85.3,153.6v17.1H68.3
			c-9.4,0-17.1,7.6-17.1,17.1v273.1c0,9.4,7.6,17.1,17.1,17.1h341.3c9.4,0,17.1-7.6,17.1-17.1V187.7
			C426.7,178.3,419,170.7,409.6,170.7z M287.2,324.1c-5.2,14.6-16.6,26-31.2,31.2v37.3c0,9.4-7.6,17.1-17.1,17.1
			s-17.1-7.6-17.1-17.1v-37.3c-26.7-9.4-40.6-38.7-31.2-65.3s38.7-40.6,65.3-31.2C282.7,268.1,296.6,297.4,287.2,324.1z
			 M358.4,170.7H119.5v-17.1c0-66,53.5-119.5,119.5-119.5s119.5,53.5,119.5,119.5V170.7z"/>
	</g>
</g>
</svg>
