<?xml version="1.0" encoding="utf-8"?>
<!-- Generator: Adobe Illustrator 23.0.0, SVG Export Plug-In . SVG Version: 6.00 Build 0)  -->
<svg version="1.1" id="Layer_1" xmlns="http://www.w3.org/2000/svg" xmlns:xlink="http://www.w3.org/1999/xlink" x="0px" y="0px"
	 viewBox="0 0 512 512" style="enable-background:new 0 0 512 512;" xml:space="preserve">
<style type="text/css">
	.st0{fill:#FFFFFF;}
	.st1{fill:#FFDC64;}
	.st2{fill:#FFC850;}
	.st3{fill:#B4E6FF;}
	.st4{fill:#F1F4FB;}
	.st5{fill:#E1A546;}
	.st6{fill:#5B5D6E;}
	.st7{fill:#9BD6FF;}
	.st8{fill:#FFB294;}
	.st9{fill:#FF1C00;}
</style>
<path class="st0" d="M358.6,102.1H50.8c-4.7,0-8.6,3.8-8.6,8.6v179.6h25.7c9.4,0,17.1,7.7,17.1,17.1c0,9.4-7.7,17.1-17.1,17.1H42.2
	v25.7c0,4.7,3.8,8.6,8.6,8.6h316.4v-248C367.2,105.9,363.3,102.1,358.6,102.1z"/>
<path class="st1" d="M469.8,238.9H367.2v119.7H504v-85.5C504,254.2,488.7,238.9,469.8,238.9z"/>
<path class="st2" d="M367.2,264.6h92.6c9.4,0,17.1,7.7,17.1,17.1v77H367.2V264.6z"/>
<path class="st1" d="M435.6,136.3h-68.4v34.2h94.1v-8.6C461.2,147.8,449.7,136.3,435.6,136.3z"/>
<polygon class="st3" points="469.8,238.9 452.7,170.5 367.2,170.5 367.2,238.9 "/>
<path class="st4" d="M469.8,273.1H504v34.2h-17.1c-9.4,0-17.1-7.7-17.1-17.1L469.8,273.1L469.8,273.1z"/>
<path class="st5" d="M427,298.8c-25.8,0-48.2,14.3-59.9,35.3v24.5h127.7C490.6,324.9,461.9,298.8,427,298.8z"/>
<path class="st2" d="M476.9,320.4v38.2h17.9C493,343.9,486.5,330.7,476.9,320.4z"/>
<circle class="st6" cx="427" cy="367.2" r="42.8"/>
<path class="st7" d="M401.4,196.1h57.7l-6.4-25.7h-85.5v68.4h25.7v-34.2C392.8,200,396.6,196.1,401.4,196.1z"/>
<path class="st8" d="M144.8,298.8c-21.6,0-40.8,10-53.4,25.7H67.9H42.2v25.7c0,4.7,3.8,8.6,8.6,8.6h316.4v-34.2h-169
	C185.7,308.8,166.4,298.8,144.8,298.8z"/>
<circle class="st6" cx="144.8" cy="367.2" r="42.8"/>
<path d="M476.2,231.4l-13.3-53c3.6-0.8,6.3-4,6.3-7.8v-8.6c0-18.6-15.1-33.7-33.7-33.7h-60.4v-17.6c0-9.1-7.4-16.6-16.6-16.6H50.8
	c-9.1,0-16.6,7.4-16.6,16.6V256c0,4.4,3.6,8,8,8s8-3.6,8-8V110.6c0-0.3,0.2-0.5,0.5-0.5h307.8c0.3,0,0.5,0.2,0.5,0.5V256
	c0,4.4,3.6,8,8,8c4.4,0,8-3.6,8-8v-9.1h94.6c0,0,0,0,0,0s0,0,0,0c11.6,0,21.5,7.6,24.9,18.2h-24.9c-4.4,0-8,3.6-8,8v17.1
	c0,13.9,11.3,25.1,25.1,25.1h9.1v35.3h-21c-6.9-19.9-25.8-34.2-48-34.2s-41.1,14.3-48,34.2h-3.9v-60.4c0-4.4-3.6-8-8-8
	c-4.4,0-8,3.6-8,8v60.4H192.8c-6.9-19.9-25.8-34.2-48-34.2s-41.1,14.3-48,34.2H50.8c-0.3,0-0.5-0.2-0.5-0.5v-17.6H85
	c4.4,0,8-3.6,8-8c0-4.4-3.6-8-8-8H8c-4.4,0-8,3.6-8,8c0,4.4,3.6,8,8,8h26.2v17.6c0,9.1,7.4,16.6,16.6,16.6h43.3c0,0.2,0,0.4,0,0.5
	c0,28,22.8,50.8,50.8,50.8s50.8-22.8,50.8-50.8c0-0.2,0-0.4,0-0.5h180.7c0,0.2,0,0.4,0,0.5c0,28,22.8,50.8,50.8,50.8
	s50.8-22.8,50.8-50.8c0-0.2,0-0.4,0-0.5H504c4.4,0,8-3.6,8-8v-85.5C512,252,496.4,234.4,476.2,231.4z M375.2,178.5h71.2l13.1,52.4
	h-84.3L375.2,178.5L375.2,178.5z M435.6,144.3c9.7,0,17.6,7.9,17.6,17.6v0.5h-78v-18.2L435.6,144.3L435.6,144.3z M144.8,401.9
	c-19.2,0-34.7-15.6-34.7-34.7s15.6-34.7,34.7-34.7s34.7,15.6,34.7,34.7C179.6,386.3,164,401.9,144.8,401.9z M427,401.9
	c-19.2,0-34.7-15.6-34.7-34.7s15.6-34.7,34.7-34.7c19.2,0,34.7,15.6,34.7,34.7C461.8,386.3,446.2,401.9,427,401.9z M486.9,299.3
	c-5,0-9.1-4.1-9.1-9.1v-9.1H496v18.2L486.9,299.3L486.9,299.3z"/>
<path d="M144.8,350.6c-9.1,0-16.6,7.4-16.6,16.6s7.4,16.6,16.6,16.6c9.1,0,16.6-7.4,16.6-16.6C161.4,358,154,350.6,144.8,350.6z"/>
<path d="M427,350.6c-9.1,0-16.6,7.4-16.6,16.6s7.4,16.6,16.6,16.6s16.6-7.4,16.6-16.6S436.2,350.6,427,350.6z"/>
<path d="M205.2,324.4c0,4.4,3.6,8,8,8H333c4.4,0,8-3.6,8-8c0-4.4-3.6-8-8-8H213.2C208.8,316.4,205.2,320,205.2,324.4z"/>
<path d="M25.1,298.2h102.6c4.4,0,8-3.6,8-8c0-4.4-3.6-8-8-8H25.1c-4.4,0-8,3.6-8,8C17.1,294.6,20.7,298.2,25.1,298.2z"/>
<g>
	<path class="st9" d="M354.5,114.9L136.1,325.8c-1.7,1.6-4.4,1.6-6.1-0.1l-4.8-5c-1.6-1.7-1.6-4.4,0.1-6.1l218.4-210.9
		c1.7-1.6,4.4-1.6,6.1,0.1l4.8,5C356.2,110.5,356.1,113.2,354.5,114.9z"/>
	<path class="st9" d="M131.5,103.4l210.6,218.1c1.6,1.7,1.6,4.4-0.1,6.1l-5,4.8c-1.7,1.6-4.4,1.6-6.1-0.1L120.3,114.1
		c-1.6-1.7-1.6-4.4,0.1-6.1l5-4.8C127.1,101.6,129.8,101.7,131.5,103.4z"/>
</g>
</svg>
