<?xml version="1.0" encoding="utf-8"?>
<!-- Generator: Adobe Illustrator 23.0.0, SVG Export Plug-In . SVG Version: 6.00 Build 0)  -->
<svg version="1.1" id="Capa_1" xmlns="http://www.w3.org/2000/svg" xmlns:xlink="http://www.w3.org/1999/xlink" x="0px" y="0px"
	 viewBox="0 0 497.9 497.9" style="enable-background:new 0 0 497.9 497.9;" xml:space="preserve">
<style type="text/css">
	.st0{fill:#D95138;}
	.st1{fill:#D96B38;}
	.st2{fill:#C0D0D6;}
	.st3{fill:#849DA9;}
</style>
<polygon class="st0" points="431.5,335.3 482.7,96.8 90.7,96.8 147.7,335.3 "/>
<polygon class="st1" points="482.7,96.8 90.7,96.8 99.5,134.9 471,134.9 "/>
<path d="M431.5,351.4H147.7c-7.3,0-13.2-4.4-14.6-11.7l-57-239.9c-1.5-4.4,0-8.8,2.9-11.7s7.3-5.9,11.7-5.9h392
	c4.4,0,8.8,1.5,11.7,5.9c2.9,2.9,4.4,8.8,2.9,13.2l-51.2,237C444.7,345.5,438.9,351.4,431.5,351.4z M159.5,320.7h260.4l43.9-209.2
	h-354L159.5,320.7z"/>
<path d="M90.7,111.5c-7.3,0-13.2-4.4-14.6-11.7L64.4,57.3H14.6C5.9,57.3,0,50,0,42.7s7.3-14.6,14.6-14.6H76
	c7.3,0,13.2,4.4,14.6,11.7l14.6,54.1c1.5,7.3-2.9,14.6-10.2,17.6C93.6,111.5,92.2,111.5,90.7,111.5z"/>
<path d="M416.9,426H99.5c-29.3,0-52.7-23.4-52.7-52.7s23.4-52.7,52.7-52.7h317.4c8.8,0,14.6,7.3,14.6,14.6c0,7.3-7.3,14.6-14.6,14.6
	H99.5c-13.2,0-23.4,10.2-23.4,23.4s10.2,23.4,23.4,23.4h317.4c8.8,0,14.6,7.3,14.6,14.6C433,420.1,425.7,426,416.9,426z"/>
<circle class="st2" cx="383.3" cy="412.8" r="42.4"/>
<circle class="st3" cx="383.3" cy="412.8" r="14.6"/>
<path d="M383.3,469.9c-32.2,0-58.5-26.3-58.5-58.5s26.3-58.5,58.5-58.5s58.5,26.3,58.5,58.5S415.5,469.9,383.3,469.9z M383.3,385
	c-16.1,0-27.8,13.2-27.8,27.8c0,16.1,13.2,27.8,27.8,27.8s27.8-13.2,27.8-27.8C411.1,396.7,397.9,385,383.3,385z"/>
<ellipse transform="matrix(7.088901e-02 -0.9975 0.9975 7.088901e-02 -271.7444 533.8578)" class="st2" cx="150.7" cy="412.8" rx="42.4" ry="42.4"/>
<circle class="st3" cx="150.7" cy="412.8" r="14.6"/>
<path d="M150.7,469.9c-32.2,0-58.5-26.3-58.5-58.5s26.3-58.5,58.5-58.5s58.5,26.3,58.5,58.5S182.9,469.9,150.7,469.9z M150.7,385
	c-16.1,0-27.8,13.2-27.8,27.8c0,16.1,13.2,27.8,27.8,27.8s27.8-13.2,27.8-27.8C178.5,396.7,166.8,385,150.7,385z"/>
<path d="M219.4,266.5c-8.8,0-14.6-7.3-14.6-14.6v-86.3c0-8.8,7.3-14.6,14.6-14.6c8.8,0,14.6,7.3,14.6,14.6v86.3
	C234.1,260.7,228.2,266.5,219.4,266.5z"/>
<path d="M286.7,266.5c-8.8,0-14.6-7.3-14.6-14.6v-86.3c0-8.8,7.3-14.6,14.6-14.6c8.8,0,14.6,7.3,14.6,14.6v86.3
	C301.3,260.7,295.5,266.5,286.7,266.5z"/>
<path d="M354,266.5c-8.8,0-14.6-7.3-14.6-14.6v-86.3c0-8.8,7.3-14.6,14.6-14.6c8.8,0,14.6,7.3,14.6,14.6v86.3
	C368.6,260.7,362.8,266.5,354,266.5z"/>
</svg>
